<svg width="72" height="72" viewBox="0 0 72 72" fill="none" xmlns="http://www.w3.org/2000/svg">
<path fill-rule="evenodd" clip-rule="evenodd" d="M57.0001 23.5C57.0001 29.299 52.2991 34 46.5001 34C40.7011 34 36.0001 29.299 36.0001 23.5C36.0001 17.701 40.7011 13 46.5001 13C52.2991 13 57.0001 17.701 57.0001 23.5ZM17.0001 17.8V25.62C17.0001 27.4867 16.5001 28.8867 15.5001 29.82C14.5134 30.74 13.0468 31.2 11.1001 31.2C9.16673 31.2 7.70007 30.74 6.70007 29.82C5.70007 28.8867 5.20007 27.4867 5.20007 25.62V17.8H8.66007V25.68C8.66007 26.6267 8.86007 27.3333 9.26007 27.8C9.6734 28.2667 10.2868 28.5 11.1001 28.5C11.9268 28.5 12.5401 28.2667 12.9401 27.8C13.3534 27.3333 13.5601 26.6267 13.5601 25.68V17.8H17.0001ZM20.9803 35.2V21H24.0403L24.1404 23.0143C24.2259 22.8126 24.3258 22.6212 24.4403 22.44C24.7603 21.9333 25.1736 21.5333 25.6803 21.24C26.1869 20.9467 26.7669 20.8 27.4203 20.8C28.2469 20.8 28.9669 21.0067 29.5803 21.42C30.1936 21.82 30.6669 22.4067 31.0003 23.18C31.3469 23.94 31.5203 24.8667 31.5203 25.96C31.5203 27.0533 31.3469 27.9933 31.0003 28.78C30.6536 29.5667 30.1669 30.1667 29.5403 30.58C28.9269 30.9933 28.2069 31.2 27.3803 31.2C26.4736 31.2 25.7403 30.9333 25.1803 30.4C24.8478 30.0755 24.5811 29.7016 24.3803 29.2783V35.2H20.9803ZM26.2203 28.7C26.8069 28.7 27.2669 28.4867 27.6003 28.06C27.9336 27.62 28.1003 26.9333 28.1003 26C28.1003 25.0667 27.9336 24.3867 27.6003 23.96C27.2803 23.52 26.8269 23.3 26.2403 23.3C25.8669 23.3 25.5403 23.4067 25.2603 23.62C24.9803 23.82 24.7603 24.12 24.6003 24.52C24.4536 24.92 24.3803 25.4133 24.3803 26C24.3803 26.56 24.4469 27.0467 24.5803 27.46C24.7269 27.86 24.9403 28.1667 25.2203 28.38C25.5003 28.5933 25.8336 28.7 26.2203 28.7ZM10.6201 40.6C11.8468 40.6 12.9268 40.7933 13.8601 41.18C14.8068 41.5533 15.6268 42.1067 16.3201 42.84L14.6601 45.06C14.0868 44.46 13.4668 44.0133 12.8001 43.72C12.1468 43.4133 11.4001 43.26 10.5601 43.26C10.0668 43.26 9.66673 43.3133 9.36007 43.42C9.0534 43.5267 8.8334 43.6733 8.70007 43.86C8.56673 44.0467 8.50007 44.26 8.50007 44.5C8.50007 44.78 8.62673 45.02 8.88007 45.22C9.14673 45.4067 9.5734 45.5667 10.1601 45.7L12.3801 46.2C13.7001 46.5067 14.6668 46.9533 15.2801 47.54C15.8934 48.1267 16.2001 48.9067 16.2001 49.88C16.2001 50.8133 15.9601 51.6067 15.4801 52.26C15.0001 52.9 14.3401 53.3867 13.5001 53.72C12.6601 54.04 11.7001 54.2 10.6201 54.2C9.74007 54.2 8.90007 54.1067 8.10007 53.92C7.30007 53.72 6.58007 53.44 5.94007 53.08C5.30007 52.72 4.76007 52.3067 4.32007 51.84L5.98007 49.54C6.3134 49.9267 6.72007 50.2733 7.20007 50.58C7.6934 50.8733 8.22673 51.1067 8.80007 51.28C9.38673 51.4533 9.98007 51.54 10.5801 51.54C11.0468 51.54 11.4334 51.4933 11.7401 51.4C12.0601 51.3067 12.2934 51.1667 12.4401 50.98C12.5868 50.7933 12.6601 50.5733 12.6601 50.32C12.6601 50.04 12.5601 49.8067 12.3601 49.62C12.1601 49.42 11.7801 49.2533 11.2201 49.12L8.78007 48.58C8.0334 48.4067 7.36673 48.18 6.78007 47.9C6.20673 47.6067 5.7534 47.22 5.42007 46.74C5.08673 46.2467 4.92007 45.6333 4.92007 44.9C4.92007 44.0733 5.14673 43.34 5.60007 42.7C6.0534 42.0467 6.70673 41.5333 7.56007 41.16C8.4134 40.7867 9.4334 40.6 10.6201 40.6ZM30.6907 44L27.0077 47.9286L30.9107 54H27.1507L24.7199 49.8939L23.1107 51.6944V54H19.7107V39.76H23.1107V48.2018L26.9107 44H30.6907ZM35.4521 42.84C34.7588 42.84 34.2521 42.7133 33.9321 42.46C33.6255 42.1933 33.4721 41.78 33.4721 41.22C33.4721 40.6467 33.6255 40.2333 33.9321 39.98C34.2521 39.7133 34.7588 39.58 35.4521 39.58C36.1321 39.58 36.6321 39.7133 36.9521 39.98C37.2721 40.2333 37.4321 40.6467 37.4321 41.22C37.4321 41.78 37.2721 42.1933 36.9521 42.46C36.6321 42.7133 36.1321 42.84 35.4521 42.84ZM37.1521 54H33.7521V44H37.1521V54ZM44.5325 39.76V50.6C44.5325 51.04 44.6058 51.3533 44.7524 51.54C44.8991 51.7267 45.1458 51.82 45.4925 51.82C45.6925 51.82 45.8591 51.8067 45.9925 51.78C46.1258 51.7533 46.2858 51.7133 46.4725 51.66L46.2524 53.7C46.0125 53.8467 45.6991 53.9667 45.3125 54.06C44.9258 54.1533 44.5458 54.2 44.1725 54.2C43.1058 54.2 42.3325 53.9533 41.8525 53.46C41.3724 52.9667 41.1325 52.16 41.1325 51.04V39.76H44.5325ZM52.6754 39.76V50.6C52.6754 51.04 52.7488 51.3533 52.8954 51.54C53.0421 51.7267 53.2888 51.82 53.6354 51.82C53.8354 51.82 54.0021 51.8067 54.1354 51.78C54.2688 51.7533 54.4288 51.7133 54.6154 51.66L54.3954 53.7C54.1554 53.8467 53.8421 53.9667 53.4554 54.06C53.0688 54.1533 52.6888 54.2 52.3154 54.2C51.2488 54.2 50.4754 53.9533 49.9954 53.46C49.5154 52.9667 49.2754 52.16 49.2754 51.04V39.76H52.6754ZM61.6584 54.2C60.6584 54.2 59.7251 54.04 58.8584 53.72C58.0051 53.3867 57.2984 52.9133 56.7384 52.3L58.3384 50.42C58.6717 50.8467 59.1117 51.2067 59.6584 51.5C60.2184 51.78 60.8384 51.92 61.5184 51.92C61.9317 51.92 62.2717 51.86 62.5384 51.74C62.8051 51.62 62.9384 51.4333 62.9384 51.18C62.9384 50.9933 62.8717 50.8467 62.7384 50.74C62.6051 50.62 62.3384 50.52 61.9384 50.44L60.5384 50.16C59.2851 49.9067 58.3917 49.5333 57.8584 49.04C57.3384 48.5333 57.0784 47.8733 57.0784 47.06C57.0784 46.5133 57.2451 45.9933 57.5784 45.5C57.9117 44.9933 58.4251 44.5867 59.1184 44.28C59.8117 43.96 60.6984 43.8 61.7784 43.8C62.7917 43.8 63.6851 43.9467 64.4584 44.24C65.2317 44.5333 65.8451 44.96 66.2984 45.52L64.6784 47.36C64.3584 46.96 63.9451 46.6467 63.4384 46.42C62.9317 46.1933 62.4251 46.08 61.9184 46.08C61.5984 46.08 61.3251 46.1133 61.0984 46.18C60.8851 46.2333 60.7251 46.3133 60.6184 46.42C60.5117 46.5267 60.4584 46.66 60.4584 46.82C60.4584 46.9933 60.5384 47.1467 60.6984 47.28C60.8717 47.4 61.1851 47.5067 61.6384 47.6L63.4584 47.96C64.4851 48.1467 65.2251 48.4867 65.6784 48.98C66.1317 49.4733 66.3584 50.0667 66.3584 50.76C66.3584 51.4133 66.1851 52 65.8384 52.52C65.4917 53.04 64.9717 53.4533 64.2784 53.76C63.5851 54.0533 62.7117 54.2 61.6584 54.2ZM50.5001 22C51.8808 22 53.0001 20.8807 53.0001 19.5C53.0001 18.1193 51.8808 17 50.5001 17C49.1194 17 48.0001 18.1193 48.0001 19.5C48.0001 20.8807 49.1194 22 50.5001 22Z" fill="white"/>
</svg>
